<mxfile host="app.diagrams.net" agent="Mozilla/5.0 (Macintosh; Intel Mac OS X 10_15_7) AppleWebKit/537.36 (KHTML, like Gecko) Chrome/129.0.0.0 Safari/537.36" version="24.8.0">
  <diagram name="Page-1" id="AOOJBfdJwTT8jiPEu-ue">
    <mxGraphModel dx="1908" dy="1310" grid="1" gridSize="10" guides="1" tooltips="1" connect="1" arrows="1" fold="1" page="1" pageScale="1" pageWidth="850" pageHeight="1100" math="0" shadow="0">
      <root>
        <mxCell id="0" />
        <mxCell id="1" parent="0" />
        <mxCell id="CxZzPQsb67g6bhw40Xln-4" style="edgeStyle=orthogonalEdgeStyle;rounded=0;orthogonalLoop=1;jettySize=auto;html=1;" parent="1" target="CxZzPQsb67g6bhw40Xln-27" edge="1">
          <mxGeometry relative="1" as="geometry">
            <mxPoint x="240" y="530" as="sourcePoint" />
            <mxPoint x="500" y="530" as="targetPoint" />
          </mxGeometry>
        </mxCell>
        <mxCell id="CxZzPQsb67g6bhw40Xln-5" value="POST api&lt;div&gt;GET api&lt;/div&gt;" style="edgeLabel;html=1;align=center;verticalAlign=middle;resizable=0;points=[];" parent="CxZzPQsb67g6bhw40Xln-4" vertex="1" connectable="0">
          <mxGeometry x="-0.0727" y="3" relative="1" as="geometry">
            <mxPoint y="1" as="offset" />
          </mxGeometry>
        </mxCell>
        <mxCell id="CxZzPQsb67g6bhw40Xln-6" value="Core Features:&lt;div&gt;- itinerary Plans&lt;/div&gt;&lt;div&gt;&lt;div&gt;&lt;span style=&quot;white-space: pre;&quot;&gt;&#x9;&lt;/span&gt;- Users upload itinerary&amp;nbsp;plan and save to DB&lt;/div&gt;&lt;div&gt;&lt;span style=&quot;white-space: pre;&quot;&gt;&#x9;&lt;/span&gt;- Users retrieve itinerary plan from DB and view&lt;br&gt;&lt;/div&gt;&lt;div&gt;&lt;span style=&quot;white-space: pre;&quot;&gt;&#x9;&lt;/span&gt;- Users delete itinerary plans from the app UI&lt;/div&gt;&lt;div&gt;- Notification&lt;/div&gt;&lt;/div&gt;&lt;div&gt;&lt;span style=&quot;white-space: pre;&quot;&gt;&#x9;&lt;/span&gt;- Send the notification to users under the same itinerary plan about the updates&lt;/div&gt;&lt;div&gt;- Location&lt;/div&gt;&lt;div&gt;&amp;nbsp;&lt;span style=&quot;white-space: pre;&quot;&gt;&#x9;&lt;/span&gt;- Users search the location based on Google/Apple APIs&lt;/div&gt;&lt;div&gt;- Role-based&lt;/div&gt;&lt;div&gt;&lt;span style=&quot;white-space: pre;&quot;&gt;&#x9;&lt;/span&gt;- Itinerary Admin will be able to remove user from viewing the itinerary&lt;br&gt;&lt;/div&gt;&lt;div&gt;&lt;span style=&quot;white-space: pre;&quot;&gt;&#x9;&lt;/span&gt;- Itinerary Contributor will be able to add or remove locations/events from itinerary plan&lt;br&gt;&lt;/div&gt;&lt;div&gt;&lt;span style=&quot;white-space: pre;&quot;&gt;&#x9;&lt;/span&gt;- Itinerary Read will be able to read the itinerary plan&lt;br&gt;&lt;/div&gt;&lt;div&gt;- Authentication &amp;amp; Authorization&lt;/div&gt;&lt;div&gt;&lt;span style=&quot;white-space: pre;&quot;&gt;&#x9;&lt;/span&gt;- User will use facebook/Apple Account login&amp;nbsp;&lt;br&gt;&lt;/div&gt;&lt;div&gt;&lt;span style=&quot;white-space: pre;&quot;&gt;&#x9;&lt;/span&gt;- Save user-related metadata in UserDB&lt;br&gt;&lt;/div&gt;&lt;div&gt;- Rate Limiter&lt;/div&gt;&lt;div&gt;&lt;span style=&quot;white-space: pre;&quot;&gt;&#x9;&lt;/span&gt;- Limiting user/location access&lt;br&gt;&lt;/div&gt;&lt;div&gt;&lt;span style=&quot;white-space: pre;&quot;&gt;&#x9;&lt;/span&gt;- Max Users -&amp;nbsp;&lt;br&gt;&lt;/div&gt;&lt;div&gt;&lt;br&gt;&lt;/div&gt;" style="text;html=1;align=left;verticalAlign=middle;resizable=0;points=[];autosize=1;strokeColor=none;fillColor=none;" parent="1" vertex="1">
          <mxGeometry x="130" y="5" width="510" height="300" as="geometry" />
        </mxCell>
        <mxCell id="CxZzPQsb67g6bhw40Xln-25" value="&lt;div style=&quot;text-wrap: wrap;&quot;&gt;&lt;br&gt;&lt;/div&gt;" style="text;html=1;align=left;verticalAlign=middle;resizable=0;points=[];autosize=1;strokeColor=none;fillColor=none;" parent="1" vertex="1">
          <mxGeometry x="260" y="725" width="20" height="30" as="geometry" />
        </mxCell>
        <mxCell id="CxZzPQsb67g6bhw40Xln-40" style="edgeStyle=orthogonalEdgeStyle;rounded=0;orthogonalLoop=1;jettySize=auto;html=1;entryX=0.007;entryY=0.539;entryDx=0;entryDy=0;entryPerimeter=0;" parent="1" source="CxZzPQsb67g6bhw40Xln-27" target="CxZzPQsb67g6bhw40Xln-41" edge="1">
          <mxGeometry relative="1" as="geometry">
            <mxPoint x="780" y="410" as="targetPoint" />
          </mxGeometry>
        </mxCell>
        <mxCell id="CxZzPQsb67g6bhw40Xln-27" value="" style="image;aspect=fixed;html=1;points=[];align=center;fontSize=12;image=img/lib/azure2/networking/Traffic_Manager_Profiles.svg;" parent="1" vertex="1">
          <mxGeometry x="532" y="496" width="68" height="68" as="geometry" />
        </mxCell>
        <mxCell id="CxZzPQsb67g6bhw40Xln-28" value="" style="image;sketch=0;aspect=fixed;html=1;points=[];align=center;fontSize=12;image=img/lib/mscae/CosmosDB.svg;" parent="1" vertex="1">
          <mxGeometry x="1150" y="487.5" width="85" height="85" as="geometry" />
        </mxCell>
        <mxCell id="CxZzPQsb67g6bhw40Xln-34" style="edgeStyle=orthogonalEdgeStyle;rounded=0;orthogonalLoop=1;jettySize=auto;html=1;" parent="1" source="CxZzPQsb67g6bhw40Xln-30" target="CxZzPQsb67g6bhw40Xln-28" edge="1">
          <mxGeometry relative="1" as="geometry" />
        </mxCell>
        <mxCell id="CxZzPQsb67g6bhw40Xln-30" value="" style="image;aspect=fixed;html=1;points=[];align=center;fontSize=12;image=img/lib/azure2/compute/Kubernetes_Services.svg;" parent="1" vertex="1">
          <mxGeometry x="890" y="490" width="90.67" height="80" as="geometry" />
        </mxCell>
        <mxCell id="CxZzPQsb67g6bhw40Xln-32" value="AKS&lt;div&gt;Kubernetes Service&lt;/div&gt;&lt;div&gt;&lt;br&gt;&lt;/div&gt;" style="text;html=1;align=center;verticalAlign=middle;resizable=0;points=[];autosize=1;strokeColor=none;fillColor=none;" parent="1" vertex="1">
          <mxGeometry x="867.49" y="290" width="130" height="60" as="geometry" />
        </mxCell>
        <mxCell id="CxZzPQsb67g6bhw40Xln-33" style="edgeStyle=orthogonalEdgeStyle;rounded=0;orthogonalLoop=1;jettySize=auto;html=1;exitX=1.022;exitY=0.499;exitDx=0;exitDy=0;exitPerimeter=0;" parent="1" source="CxZzPQsb67g6bhw40Xln-27" target="CxZzPQsb67g6bhw40Xln-30" edge="1">
          <mxGeometry relative="1" as="geometry">
            <mxPoint x="590" y="530" as="sourcePoint" />
            <mxPoint x="860" y="530" as="targetPoint" />
          </mxGeometry>
        </mxCell>
        <mxCell id="CxZzPQsb67g6bhw40Xln-37" style="edgeStyle=orthogonalEdgeStyle;rounded=0;orthogonalLoop=1;jettySize=auto;html=1;" parent="1" source="CxZzPQsb67g6bhw40Xln-36" target="CxZzPQsb67g6bhw40Xln-27" edge="1">
          <mxGeometry relative="1" as="geometry" />
        </mxCell>
        <mxCell id="CxZzPQsb67g6bhw40Xln-39" style="edgeStyle=orthogonalEdgeStyle;rounded=0;orthogonalLoop=1;jettySize=auto;html=1;" parent="1" source="CxZzPQsb67g6bhw40Xln-36" target="CxZzPQsb67g6bhw40Xln-38" edge="1">
          <mxGeometry relative="1" as="geometry" />
        </mxCell>
        <mxCell id="CxZzPQsb67g6bhw40Xln-50" style="edgeStyle=orthogonalEdgeStyle;rounded=0;orthogonalLoop=1;jettySize=auto;html=1;" parent="1" source="CxZzPQsb67g6bhw40Xln-36" edge="1">
          <mxGeometry relative="1" as="geometry">
            <mxPoint x="360" y="380" as="targetPoint" />
          </mxGeometry>
        </mxCell>
        <mxCell id="CxZzPQsb67g6bhw40Xln-36" value="" style="html=1;verticalLabelPosition=bottom;align=center;labelBackgroundColor=#ffffff;verticalAlign=top;strokeWidth=2;strokeColor=#0080F0;shadow=0;dashed=0;shape=mxgraph.ios7.icons.smartphone;" parent="1" vertex="1">
          <mxGeometry x="170" y="502.5" width="30" height="55" as="geometry" />
        </mxCell>
        <mxCell id="CxZzPQsb67g6bhw40Xln-38" value="" style="image;aspect=fixed;html=1;points=[];align=center;fontSize=12;image=img/lib/azure2/identity/Azure_Active_Directory.svg;" parent="1" vertex="1">
          <mxGeometry x="149.46" y="755" width="71.09" height="65" as="geometry" />
        </mxCell>
        <mxCell id="CxZzPQsb67g6bhw40Xln-49" style="edgeStyle=orthogonalEdgeStyle;rounded=0;orthogonalLoop=1;jettySize=auto;html=1;" parent="1" source="CxZzPQsb67g6bhw40Xln-41" target="CxZzPQsb67g6bhw40Xln-28" edge="1">
          <mxGeometry relative="1" as="geometry" />
        </mxCell>
        <mxCell id="CxZzPQsb67g6bhw40Xln-41" value="" style="image;aspect=fixed;html=1;points=[];align=center;fontSize=12;image=img/lib/azure2/compute/Kubernetes_Services.svg;" parent="1" vertex="1">
          <mxGeometry x="887.16" y="360" width="90.67" height="80" as="geometry" />
        </mxCell>
        <mxCell id="CxZzPQsb67g6bhw40Xln-42" value="" style="image;aspect=fixed;html=1;points=[];align=center;fontSize=12;image=img/lib/azure2/compute/Kubernetes_Services.svg;" parent="1" vertex="1">
          <mxGeometry x="892.83" y="620" width="90.67" height="80" as="geometry" />
        </mxCell>
        <mxCell id="CxZzPQsb67g6bhw40Xln-44" style="edgeStyle=orthogonalEdgeStyle;rounded=0;orthogonalLoop=1;jettySize=auto;html=1;entryX=-0.009;entryY=0.591;entryDx=0;entryDy=0;entryPerimeter=0;" parent="1" source="CxZzPQsb67g6bhw40Xln-27" target="CxZzPQsb67g6bhw40Xln-42" edge="1">
          <mxGeometry relative="1" as="geometry">
            <Array as="points">
              <mxPoint x="746" y="530" />
              <mxPoint x="746" y="667" />
            </Array>
          </mxGeometry>
        </mxCell>
        <mxCell id="CxZzPQsb67g6bhw40Xln-45" value="EUS" style="text;html=1;align=center;verticalAlign=middle;resizable=0;points=[];autosize=1;strokeColor=none;fillColor=none;" parent="1" vertex="1">
          <mxGeometry x="910.34" y="440" width="50" height="30" as="geometry" />
        </mxCell>
        <mxCell id="CxZzPQsb67g6bhw40Xln-46" value="WestUS" style="text;html=1;align=center;verticalAlign=middle;resizable=0;points=[];autosize=1;strokeColor=none;fillColor=none;" parent="1" vertex="1">
          <mxGeometry x="903.16" y="570" width="70" height="30" as="geometry" />
        </mxCell>
        <mxCell id="CxZzPQsb67g6bhw40Xln-47" value="CentralUS" style="text;html=1;align=center;verticalAlign=middle;resizable=0;points=[];autosize=1;strokeColor=none;fillColor=none;" parent="1" vertex="1">
          <mxGeometry x="900.67" y="700" width="80" height="30" as="geometry" />
        </mxCell>
        <mxCell id="CxZzPQsb67g6bhw40Xln-48" style="edgeStyle=orthogonalEdgeStyle;rounded=0;orthogonalLoop=1;jettySize=auto;html=1;entryX=0.577;entryY=0.958;entryDx=0;entryDy=0;entryPerimeter=0;" parent="1" source="CxZzPQsb67g6bhw40Xln-42" target="CxZzPQsb67g6bhw40Xln-28" edge="1">
          <mxGeometry relative="1" as="geometry" />
        </mxCell>
        <mxCell id="CxZzPQsb67g6bhw40Xln-64" value="Seattle&lt;div&gt;- Pike Market -&amp;gt; isFinalized = false; vote = [UserIds: 1234, 4567]&lt;/div&gt;&lt;div&gt;&lt;br&gt;&lt;/div&gt;&lt;div&gt;- Mt Rainer -&amp;gt; isFinialized = true; vote = 0 likes&lt;/div&gt;" style="text;html=1;align=center;verticalAlign=middle;resizable=0;points=[];autosize=1;strokeColor=none;fillColor=none;" parent="1" vertex="1">
          <mxGeometry x="497.49" y="270" width="370" height="70" as="geometry" />
        </mxCell>
        <mxCell id="CxZzPQsb67g6bhw40Xln-79" value="" style="shape=partialRectangle;connectable=0;fillColor=none;top=0;left=0;bottom=0;right=0;align=left;spacingLeft=6;overflow=hidden;whiteSpace=wrap;html=1;" parent="1" vertex="1">
          <mxGeometry x="294.9999999999999" y="2170" width="180.00000000000014" height="30" as="geometry">
            <mxRectangle width="180.00000000000014" height="30" as="alternateBounds" />
          </mxGeometry>
        </mxCell>
        <mxCell id="CxZzPQsb67g6bhw40Xln-82" value="ItineraryLocation" style="shape=table;startSize=30;container=1;collapsible=1;childLayout=tableLayout;fixedRows=1;rowLines=0;fontStyle=1;align=center;resizeLast=1;html=1;" parent="1" vertex="1">
          <mxGeometry x="616" y="1070" width="400" height="430" as="geometry" />
        </mxCell>
        <mxCell id="CxZzPQsb67g6bhw40Xln-83" value="" style="shape=tableRow;horizontal=0;startSize=0;swimlaneHead=0;swimlaneBody=0;fillColor=none;collapsible=0;dropTarget=0;points=[[0,0.5],[1,0.5]];portConstraint=eastwest;top=0;left=0;right=0;bottom=1;" parent="CxZzPQsb67g6bhw40Xln-82" vertex="1">
          <mxGeometry y="30" width="400" height="30" as="geometry" />
        </mxCell>
        <mxCell id="CxZzPQsb67g6bhw40Xln-84" value="PK" style="shape=partialRectangle;connectable=0;fillColor=none;top=0;left=0;bottom=0;right=0;fontStyle=1;overflow=hidden;whiteSpace=wrap;html=1;" parent="CxZzPQsb67g6bhw40Xln-83" vertex="1">
          <mxGeometry width="29.659999999999854" height="30" as="geometry">
            <mxRectangle width="29.659999999999854" height="30" as="alternateBounds" />
          </mxGeometry>
        </mxCell>
        <mxCell id="CxZzPQsb67g6bhw40Xln-85" value="&lt;span style=&quot;text-align: center; text-wrap: nowrap;&quot;&gt;ItineraryLocationID: Int; 1&lt;/span&gt;" style="shape=partialRectangle;connectable=0;fillColor=none;top=0;left=0;bottom=0;right=0;align=left;spacingLeft=6;fontStyle=5;overflow=hidden;whiteSpace=wrap;html=1;" parent="CxZzPQsb67g6bhw40Xln-83" vertex="1">
          <mxGeometry x="29.659999999999854" width="370.34000000000015" height="30" as="geometry">
            <mxRectangle width="370.34000000000015" height="30" as="alternateBounds" />
          </mxGeometry>
        </mxCell>
        <mxCell id="CxZzPQsb67g6bhw40Xln-86" value="" style="shape=tableRow;horizontal=0;startSize=0;swimlaneHead=0;swimlaneBody=0;fillColor=none;collapsible=0;dropTarget=0;points=[[0,0.5],[1,0.5]];portConstraint=eastwest;top=0;left=0;right=0;bottom=0;" parent="CxZzPQsb67g6bhw40Xln-82" vertex="1">
          <mxGeometry y="60" width="400" height="315" as="geometry" />
        </mxCell>
        <mxCell id="CxZzPQsb67g6bhw40Xln-87" value="" style="shape=partialRectangle;connectable=0;fillColor=none;top=0;left=0;bottom=0;right=0;editable=1;overflow=hidden;whiteSpace=wrap;html=1;" parent="CxZzPQsb67g6bhw40Xln-86" vertex="1">
          <mxGeometry width="29.659999999999854" height="315" as="geometry">
            <mxRectangle width="29.659999999999854" height="315" as="alternateBounds" />
          </mxGeometry>
        </mxCell>
        <mxCell id="CxZzPQsb67g6bhw40Xln-88" value="" style="shape=partialRectangle;connectable=0;fillColor=none;top=0;left=0;bottom=0;right=0;align=left;spacingLeft=6;overflow=hidden;whiteSpace=wrap;html=1;" parent="CxZzPQsb67g6bhw40Xln-86" vertex="1">
          <mxGeometry x="29.659999999999854" width="370.34000000000015" height="315" as="geometry">
            <mxRectangle width="370.34000000000015" height="315" as="alternateBounds" />
          </mxGeometry>
        </mxCell>
        <mxCell id="CxZzPQsb67g6bhw40Xln-89" value="" style="shape=tableRow;horizontal=0;startSize=0;swimlaneHead=0;swimlaneBody=0;fillColor=none;collapsible=0;dropTarget=0;points=[[0,0.5],[1,0.5]];portConstraint=eastwest;top=0;left=0;right=0;bottom=0;" parent="CxZzPQsb67g6bhw40Xln-82" vertex="1">
          <mxGeometry y="375" width="400" height="25" as="geometry" />
        </mxCell>
        <mxCell id="CxZzPQsb67g6bhw40Xln-90" value="" style="shape=partialRectangle;connectable=0;fillColor=none;top=0;left=0;bottom=0;right=0;editable=1;overflow=hidden;whiteSpace=wrap;html=1;" parent="CxZzPQsb67g6bhw40Xln-89" vertex="1">
          <mxGeometry width="29.659999999999854" height="25" as="geometry">
            <mxRectangle width="29.659999999999854" height="25" as="alternateBounds" />
          </mxGeometry>
        </mxCell>
        <mxCell id="CxZzPQsb67g6bhw40Xln-91" value="" style="shape=partialRectangle;connectable=0;fillColor=none;top=0;left=0;bottom=0;right=0;align=left;spacingLeft=6;overflow=hidden;whiteSpace=wrap;html=1;" parent="CxZzPQsb67g6bhw40Xln-89" vertex="1">
          <mxGeometry x="29.659999999999854" width="370.34000000000015" height="25" as="geometry">
            <mxRectangle width="370.34000000000015" height="25" as="alternateBounds" />
          </mxGeometry>
        </mxCell>
        <mxCell id="CxZzPQsb67g6bhw40Xln-92" value="" style="shape=tableRow;horizontal=0;startSize=0;swimlaneHead=0;swimlaneBody=0;fillColor=none;collapsible=0;dropTarget=0;points=[[0,0.5],[1,0.5]];portConstraint=eastwest;top=0;left=0;right=0;bottom=0;" parent="CxZzPQsb67g6bhw40Xln-82" vertex="1">
          <mxGeometry y="400" width="400" height="30" as="geometry" />
        </mxCell>
        <mxCell id="CxZzPQsb67g6bhw40Xln-93" value="" style="shape=partialRectangle;connectable=0;fillColor=none;top=0;left=0;bottom=0;right=0;editable=1;overflow=hidden;whiteSpace=wrap;html=1;" parent="CxZzPQsb67g6bhw40Xln-92" vertex="1">
          <mxGeometry width="29.659999999999854" height="30" as="geometry">
            <mxRectangle width="29.659999999999854" height="30" as="alternateBounds" />
          </mxGeometry>
        </mxCell>
        <mxCell id="CxZzPQsb67g6bhw40Xln-94" value="" style="shape=partialRectangle;connectable=0;fillColor=none;top=0;left=0;bottom=0;right=0;align=left;spacingLeft=6;overflow=hidden;whiteSpace=wrap;html=1;" parent="CxZzPQsb67g6bhw40Xln-92" vertex="1">
          <mxGeometry x="29.659999999999854" width="370.34000000000015" height="30" as="geometry">
            <mxRectangle width="370.34000000000015" height="30" as="alternateBounds" />
          </mxGeometry>
        </mxCell>
        <mxCell id="z1WtL6arX588rDJ7dFl5-21" value="" style="group" parent="1" vertex="1" connectable="0">
          <mxGeometry x="70" y="1070" width="440.55" height="432" as="geometry" />
        </mxCell>
        <mxCell id="CxZzPQsb67g6bhw40Xln-95" value="&lt;meta charset=&quot;utf-8&quot;&gt;&lt;span style=&quot;color: rgb(0, 0, 0); font-family: Helvetica; font-size: 12px; font-style: normal; font-variant-ligatures: normal; font-variant-caps: normal; font-weight: 400; letter-spacing: normal; orphans: 2; text-align: left; text-indent: 0px; text-transform: none; widows: 2; word-spacing: 0px; -webkit-text-stroke-width: 0px; white-space: normal; background-color: rgb(251, 251, 251); text-decoration-thickness: initial; text-decoration-style: initial; text-decoration-color: initial; display: inline !important; float: none;&quot;&gt;Gender: String; Male&lt;/span&gt;" style="shape=table;startSize=30;container=1;collapsible=1;childLayout=tableLayout;fixedRows=1;rowLines=0;fontStyle=1;align=center;resizeLast=1;html=1;movable=1;resizable=1;rotatable=1;deletable=1;editable=1;locked=0;connectable=1;" parent="z1WtL6arX588rDJ7dFl5-21" vertex="1">
          <mxGeometry width="400" height="432" as="geometry" />
        </mxCell>
        <mxCell id="CxZzPQsb67g6bhw40Xln-96" value="" style="shape=tableRow;horizontal=0;startSize=0;swimlaneHead=0;swimlaneBody=0;fillColor=none;collapsible=0;dropTarget=0;points=[[0,0.5],[1,0.5]];portConstraint=eastwest;top=0;left=0;right=0;bottom=1;" parent="CxZzPQsb67g6bhw40Xln-95" vertex="1">
          <mxGeometry y="30" width="400" height="30" as="geometry" />
        </mxCell>
        <mxCell id="CxZzPQsb67g6bhw40Xln-97" value="PK" style="shape=partialRectangle;connectable=0;fillColor=none;top=0;left=0;bottom=0;right=0;fontStyle=1;overflow=hidden;whiteSpace=wrap;html=1;" parent="CxZzPQsb67g6bhw40Xln-96" vertex="1">
          <mxGeometry width="29.450000000000273" height="30" as="geometry">
            <mxRectangle width="29.450000000000273" height="30" as="alternateBounds" />
          </mxGeometry>
        </mxCell>
        <mxCell id="CxZzPQsb67g6bhw40Xln-98" value="&lt;span style=&quot;text-align: center; text-wrap: nowrap;&quot;&gt;LocationID Int; 1234&lt;/span&gt;" style="shape=partialRectangle;connectable=0;fillColor=none;top=0;left=0;bottom=0;right=0;align=left;spacingLeft=6;fontStyle=5;overflow=hidden;whiteSpace=wrap;html=1;" parent="CxZzPQsb67g6bhw40Xln-96" vertex="1">
          <mxGeometry x="29.450000000000273" width="370.5499999999997" height="30" as="geometry">
            <mxRectangle width="370.5499999999997" height="30" as="alternateBounds" />
          </mxGeometry>
        </mxCell>
        <mxCell id="CxZzPQsb67g6bhw40Xln-99" value="" style="shape=tableRow;horizontal=0;startSize=0;swimlaneHead=0;swimlaneBody=0;fillColor=none;collapsible=0;dropTarget=0;points=[[0,0.5],[1,0.5]];portConstraint=eastwest;top=0;left=0;right=0;bottom=0;" parent="CxZzPQsb67g6bhw40Xln-95" vertex="1">
          <mxGeometry y="60" width="400" height="30" as="geometry" />
        </mxCell>
        <mxCell id="CxZzPQsb67g6bhw40Xln-100" value="" style="shape=partialRectangle;connectable=0;fillColor=none;top=0;left=0;bottom=0;right=0;editable=1;overflow=hidden;whiteSpace=wrap;html=1;" parent="CxZzPQsb67g6bhw40Xln-99" vertex="1">
          <mxGeometry width="29.450000000000273" height="30" as="geometry">
            <mxRectangle width="29.450000000000273" height="30" as="alternateBounds" />
          </mxGeometry>
        </mxCell>
        <mxCell id="CxZzPQsb67g6bhw40Xln-101" value="" style="shape=partialRectangle;connectable=0;fillColor=none;top=0;left=0;bottom=0;right=0;align=left;spacingLeft=6;overflow=hidden;whiteSpace=wrap;html=1;" parent="CxZzPQsb67g6bhw40Xln-99" vertex="1">
          <mxGeometry x="29.450000000000273" width="370.5499999999997" height="30" as="geometry">
            <mxRectangle width="370.5499999999997" height="30" as="alternateBounds" />
          </mxGeometry>
        </mxCell>
        <mxCell id="CxZzPQsb67g6bhw40Xln-102" value="" style="shape=tableRow;horizontal=0;startSize=0;swimlaneHead=0;swimlaneBody=0;fillColor=none;collapsible=0;dropTarget=0;points=[[0,0.5],[1,0.5]];portConstraint=eastwest;top=0;left=0;right=0;bottom=0;" parent="CxZzPQsb67g6bhw40Xln-95" vertex="1">
          <mxGeometry y="90" width="400" height="80" as="geometry" />
        </mxCell>
        <mxCell id="CxZzPQsb67g6bhw40Xln-103" value="" style="shape=partialRectangle;connectable=0;fillColor=none;top=0;left=0;bottom=0;right=0;editable=1;overflow=hidden;whiteSpace=wrap;html=1;" parent="CxZzPQsb67g6bhw40Xln-102" vertex="1">
          <mxGeometry width="29.450000000000273" height="80" as="geometry">
            <mxRectangle width="29.450000000000273" height="80" as="alternateBounds" />
          </mxGeometry>
        </mxCell>
        <mxCell id="CxZzPQsb67g6bhw40Xln-104" value="" style="shape=partialRectangle;connectable=0;fillColor=none;top=0;left=0;bottom=0;right=0;align=left;spacingLeft=6;overflow=hidden;whiteSpace=wrap;html=1;" parent="CxZzPQsb67g6bhw40Xln-102" vertex="1">
          <mxGeometry x="29.450000000000273" width="370.5499999999997" height="80" as="geometry">
            <mxRectangle width="370.5499999999997" height="80" as="alternateBounds" />
          </mxGeometry>
        </mxCell>
        <mxCell id="CxZzPQsb67g6bhw40Xln-105" value="" style="shape=tableRow;horizontal=0;startSize=0;swimlaneHead=0;swimlaneBody=0;fillColor=none;collapsible=0;dropTarget=0;points=[[0,0.5],[1,0.5]];portConstraint=eastwest;top=0;left=0;right=0;bottom=0;" parent="CxZzPQsb67g6bhw40Xln-95" vertex="1">
          <mxGeometry y="170" width="400" height="262" as="geometry" />
        </mxCell>
        <mxCell id="CxZzPQsb67g6bhw40Xln-106" value="" style="shape=partialRectangle;connectable=0;fillColor=none;top=0;left=0;bottom=0;right=0;editable=1;overflow=hidden;whiteSpace=wrap;html=1;" parent="CxZzPQsb67g6bhw40Xln-105" vertex="1">
          <mxGeometry width="29.450000000000273" height="262" as="geometry">
            <mxRectangle width="29.450000000000273" height="262" as="alternateBounds" />
          </mxGeometry>
        </mxCell>
        <mxCell id="CxZzPQsb67g6bhw40Xln-107" value="" style="shape=partialRectangle;connectable=0;fillColor=none;top=0;left=0;bottom=0;right=0;align=left;spacingLeft=6;overflow=hidden;whiteSpace=wrap;html=1;" parent="CxZzPQsb67g6bhw40Xln-105" vertex="1">
          <mxGeometry x="29.450000000000273" width="370.5499999999997" height="262" as="geometry">
            <mxRectangle width="370.5499999999997" height="262" as="alternateBounds" />
          </mxGeometry>
        </mxCell>
        <mxCell id="z1WtL6arX588rDJ7dFl5-13" value="StreetAddress1: String;&amp;nbsp;1535 Pike Pl&amp;nbsp;" style="shape=partialRectangle;connectable=0;fillColor=none;top=0;left=0;bottom=0;right=0;align=left;spacingLeft=6;overflow=hidden;whiteSpace=wrap;html=1;" parent="z1WtL6arX588rDJ7dFl5-21" vertex="1">
          <mxGeometry x="30.000000000000274" y="160" width="410.5499999999997" height="30" as="geometry">
            <mxRectangle width="410.5499999999997" height="30" as="alternateBounds" />
          </mxGeometry>
        </mxCell>
        <mxCell id="z1WtL6arX588rDJ7dFl5-14" value="StreetAddress2: String" style="shape=partialRectangle;connectable=0;fillColor=none;top=0;left=0;bottom=0;right=0;align=left;spacingLeft=6;overflow=hidden;whiteSpace=wrap;html=1;" parent="z1WtL6arX588rDJ7dFl5-21" vertex="1">
          <mxGeometry x="30.000000000000274" y="190" width="410.5499999999997" height="30" as="geometry">
            <mxRectangle width="410.5499999999997" height="30" as="alternateBounds" />
          </mxGeometry>
        </mxCell>
        <mxCell id="z1WtL6arX588rDJ7dFl5-15" value="City: String; Seattle" style="shape=partialRectangle;connectable=0;fillColor=none;top=0;left=0;bottom=0;right=0;align=left;spacingLeft=6;overflow=hidden;whiteSpace=wrap;html=1;" parent="z1WtL6arX588rDJ7dFl5-21" vertex="1">
          <mxGeometry x="30.000000000000274" y="220" width="410.5499999999997" height="30" as="geometry">
            <mxRectangle width="410.5499999999997" height="30" as="alternateBounds" />
          </mxGeometry>
        </mxCell>
        <mxCell id="z1WtL6arX588rDJ7dFl5-16" value="ZipCode: String; 98101" style="shape=partialRectangle;connectable=0;fillColor=none;top=0;left=0;bottom=0;right=0;align=left;spacingLeft=6;overflow=hidden;whiteSpace=wrap;html=1;" parent="z1WtL6arX588rDJ7dFl5-21" vertex="1">
          <mxGeometry x="29.450000000000273" y="250" width="410.5499999999997" height="30" as="geometry">
            <mxRectangle width="410.5499999999997" height="30" as="alternateBounds" />
          </mxGeometry>
        </mxCell>
        <mxCell id="z1WtL6arX588rDJ7dFl5-17" value="Country: String; USA&lt;span style=&quot;color: rgba(0, 0, 0, 0); font-family: monospace; font-size: 0px; text-wrap: nowrap;&quot;&gt;%3CmxGraphModel%3E%3Croot%3E%3CmxCell%20id%3D%220%22%2F%3E%3CmxCell%20id%3D%221%22%20parent%3D%220%22%2F%3E%3CmxCell%20id%3D%222%22%20value%3D%22ZipCode%3A%20String%22%20style%3D%22shape%3DpartialRectangle%3Bconnectable%3D0%3BfillColor%3Dnone%3Btop%3D0%3Bleft%3D0%3Bbottom%3D0%3Bright%3D0%3Balign%3Dleft%3BspacingLeft%3D6%3Boverflow%3Dhidden%3BwhiteSpace%3Dwrap%3Bhtml%3D1%3B%22%20vertex%3D%221%22%20parent%3D%221%22%3E%3CmxGeometry%20x%3D%2249.45000000000027%22%20y%3D%221190%22%20width%3D%22410.5499999999997%22%20height%3D%2230%22%20as%3D%22geometry%22%3E%3CmxRectangle%20width%3D%22410.5499999999997%22%20height%3D%2230%22%20as%3D%22alternateBounds%22%2F%3E%3C%2FmxGeometry%3E%3C%2FmxCell%3E%3C%2Froot%3E%3C%2FmxGraphModel%3E;&lt;/span&gt;" style="shape=partialRectangle;connectable=0;fillColor=none;top=0;left=0;bottom=0;right=0;align=left;spacingLeft=6;overflow=hidden;whiteSpace=wrap;html=1;" parent="z1WtL6arX588rDJ7dFl5-21" vertex="1">
          <mxGeometry x="29.450000000000273" y="310" width="410.5499999999997" height="30" as="geometry">
            <mxRectangle width="410.5499999999997" height="30" as="alternateBounds" />
          </mxGeometry>
        </mxCell>
        <mxCell id="z1WtL6arX588rDJ7dFl5-18" value="State: String; WA&lt;span style=&quot;color: rgba(0, 0, 0, 0); font-family: monospace; font-size: 0px; text-wrap: nowrap;&quot;&gt;%3CmxGraphModel%3E%3Croot%3E%3CmxCell%20id%3D%220%22%2F%3E%3CmxCell%20id%3D%221%22%20parent%3D%220%22%2F%3E%3CmxCell%20id%3D%222%22%20value%3D%22ZipCode%3A%20String%22%20style%3D%22shape%3DpartialRectangle%3Bconnectable%3D0%3BfillColor%3Dnone%3Btop%3D0%3Bleft%3D0%3Bbottom%3D0%3Bright%3D0%3Balign%3Dleft%3BspacingLeft%3D6%3Boverflow%3Dhidden%3BwhiteSpace%3Dwrap%3Bhtml%3D1%3B%22%20vertex%3D%221%22%20parent%3D%221%22%3E%3CmxGeometry%20x%3D%2249.45000000000027%22%20y%3D%221190%22%20width%3D%22410.5499999999997%22%20height%3D%2230%22%20as%3D%22geometry%22%3E%3CmxRectangle%20width%3D%22410.5499999999997%22%20height%3D%2230%22%20as%3D%22alternateBounds%22%2F%3E%3C%2FmxGeometry%3E%3C%2FmxCell%3E%3C%2Froot%3E%3C%2FmxGraphModel%3E; WA&lt;/span&gt;" style="shape=partialRectangle;connectable=0;fillColor=none;top=0;left=0;bottom=0;right=0;align=left;spacingLeft=6;overflow=hidden;whiteSpace=wrap;html=1;" parent="z1WtL6arX588rDJ7dFl5-21" vertex="1">
          <mxGeometry x="29.450000000000273" y="280" width="410.5499999999997" height="30" as="geometry">
            <mxRectangle width="410.5499999999997" height="30" as="alternateBounds" />
          </mxGeometry>
        </mxCell>
        <mxCell id="z1WtL6arX588rDJ7dFl5-19" value="" style="shape=partialRectangle;connectable=0;fillColor=none;top=0;left=0;bottom=0;right=0;align=left;spacingLeft=6;overflow=hidden;whiteSpace=wrap;html=1;" parent="z1WtL6arX588rDJ7dFl5-21" vertex="1">
          <mxGeometry x="29.450000000000273" y="87" width="410.5499999999997" height="30" as="geometry">
            <mxRectangle width="410.5499999999997" height="30" as="alternateBounds" />
          </mxGeometry>
        </mxCell>
        <mxCell id="z1WtL6arX588rDJ7dFl5-20" value="Longitude: String;&amp;nbsp;122.3422° W&amp;nbsp;" style="shape=partialRectangle;connectable=0;fillColor=none;top=0;left=0;bottom=0;right=0;align=left;spacingLeft=6;overflow=hidden;whiteSpace=wrap;html=1;" parent="z1WtL6arX588rDJ7dFl5-21" vertex="1">
          <mxGeometry x="29.450000000000273" y="130" width="410.5499999999997" height="30" as="geometry">
            <mxRectangle width="410.5499999999997" height="30" as="alternateBounds" />
          </mxGeometry>
        </mxCell>
        <mxCell id="z1WtL6arX588rDJ7dFl5-25" value="LocationName string; Pike Market" style="shape=partialRectangle;connectable=0;fillColor=none;top=0;left=0;bottom=0;right=0;align=left;spacingLeft=6;overflow=hidden;whiteSpace=wrap;html=1;" parent="z1WtL6arX588rDJ7dFl5-21" vertex="1">
          <mxGeometry x="29.450000000000273" y="70" width="410.5499999999997" height="30" as="geometry">
            <mxRectangle width="410.5499999999997" height="30" as="alternateBounds" />
          </mxGeometry>
        </mxCell>
        <mxCell id="z1WtL6arX588rDJ7dFl5-26" value="Latitude: String;&amp;nbsp;47.6097° N&amp;nbsp;" style="shape=partialRectangle;connectable=0;fillColor=none;top=0;left=0;bottom=0;right=0;align=left;spacingLeft=6;overflow=hidden;whiteSpace=wrap;html=1;" parent="z1WtL6arX588rDJ7dFl5-21" vertex="1">
          <mxGeometry x="30.00000000000027" y="100" width="410.5499999999997" height="30" as="geometry">
            <mxRectangle width="410.5499999999997" height="30" as="alternateBounds" />
          </mxGeometry>
        </mxCell>
        <mxCell id="z1WtL6arX588rDJ7dFl5-22" value="" style="shape=tableRow;horizontal=0;startSize=0;swimlaneHead=0;swimlaneBody=0;fillColor=none;collapsible=0;dropTarget=0;points=[[0,0.5],[1,0.5]];portConstraint=eastwest;top=0;left=0;right=0;bottom=0;" parent="1" vertex="1">
          <mxGeometry x="620" y="1140" width="400" height="30" as="geometry" />
        </mxCell>
        <mxCell id="z1WtL6arX588rDJ7dFl5-23" value="" style="shape=partialRectangle;connectable=0;fillColor=none;top=0;left=0;bottom=0;right=0;editable=1;overflow=hidden;whiteSpace=wrap;html=1;" parent="z1WtL6arX588rDJ7dFl5-22" vertex="1">
          <mxGeometry width="29.659999999999854" height="30" as="geometry">
            <mxRectangle width="29.659999999999854" height="30" as="alternateBounds" />
          </mxGeometry>
        </mxCell>
        <mxCell id="z1WtL6arX588rDJ7dFl5-24" value="LocationID: Int; 1234" style="shape=partialRectangle;connectable=0;fillColor=none;top=0;left=0;bottom=0;right=0;align=left;spacingLeft=6;overflow=hidden;whiteSpace=wrap;html=1;" parent="z1WtL6arX588rDJ7dFl5-22" vertex="1">
          <mxGeometry x="29.659999999999854" width="370.34000000000015" height="30" as="geometry">
            <mxRectangle width="370.34000000000015" height="30" as="alternateBounds" />
          </mxGeometry>
        </mxCell>
        <mxCell id="z1WtL6arX588rDJ7dFl5-27" value="&lt;span style=&quot;color: rgb(0, 0, 0); font-family: Helvetica; font-size: 12px; font-style: normal; font-variant-ligatures: normal; font-variant-caps: normal; font-weight: 400; letter-spacing: normal; orphans: 2; text-align: left; text-indent: 0px; text-transform: none; widows: 2; word-spacing: 0px; -webkit-text-stroke-width: 0px; white-space: normal; background-color: rgb(251, 251, 251); text-decoration-thickness: initial; text-decoration-style: initial; text-decoration-color: initial; display: inline !important; float: none;&quot;&gt;ItineraryID: Int; 1&lt;/span&gt;" style="text;whiteSpace=wrap;html=1;" parent="1" vertex="1">
          <mxGeometry x="656" y="1170" width="180" height="40" as="geometry" />
        </mxCell>
        <mxCell id="z1WtL6arX588rDJ7dFl5-29" value="Date: DateTime; 10/16/2024" style="shape=partialRectangle;connectable=0;fillColor=none;top=0;left=0;bottom=0;right=0;align=left;spacingLeft=6;overflow=hidden;whiteSpace=wrap;html=1;" parent="1" vertex="1">
          <mxGeometry x="649.6599999999999" y="1200" width="370.34000000000015" height="30" as="geometry">
            <mxRectangle width="370.34000000000015" height="30" as="alternateBounds" />
          </mxGeometry>
        </mxCell>
        <mxCell id="z1WtL6arX588rDJ7dFl5-31" value="UserVote: [Int]; [1234, 2345, 3567]" style="shape=partialRectangle;connectable=0;fillColor=none;top=0;left=0;bottom=0;right=0;align=left;spacingLeft=6;overflow=hidden;whiteSpace=wrap;html=1;" parent="1" vertex="1">
          <mxGeometry x="649.6599999999999" y="1230" width="370.34000000000015" height="30" as="geometry">
            <mxRectangle width="370.34000000000015" height="30" as="alternateBounds" />
          </mxGeometry>
        </mxCell>
        <mxCell id="z1WtL6arX588rDJ7dFl5-40" value="" style="group" parent="1" vertex="1" connectable="0">
          <mxGeometry x="70" y="1730" width="400" height="570" as="geometry" />
        </mxCell>
        <mxCell id="CxZzPQsb67g6bhw40Xln-51" value="Itinerary" style="shape=table;startSize=30;container=1;collapsible=1;childLayout=tableLayout;fixedRows=1;rowLines=0;fontStyle=1;align=center;resizeLast=1;html=1;movable=1;resizable=1;rotatable=1;deletable=1;editable=1;locked=0;connectable=1;" parent="z1WtL6arX588rDJ7dFl5-40" vertex="1">
          <mxGeometry width="400" height="570" as="geometry" />
        </mxCell>
        <mxCell id="CxZzPQsb67g6bhw40Xln-52" value="" style="shape=tableRow;horizontal=0;startSize=0;swimlaneHead=0;swimlaneBody=0;fillColor=none;collapsible=0;dropTarget=0;points=[[0,0.5],[1,0.5]];portConstraint=eastwest;top=0;left=0;right=0;bottom=1;movable=1;resizable=1;rotatable=1;deletable=1;editable=1;locked=0;connectable=1;" parent="CxZzPQsb67g6bhw40Xln-51" vertex="1">
          <mxGeometry y="30" width="400" height="30" as="geometry" />
        </mxCell>
        <mxCell id="CxZzPQsb67g6bhw40Xln-53" value="PK" style="shape=partialRectangle;connectable=1;fillColor=none;top=0;left=0;bottom=0;right=0;fontStyle=1;overflow=hidden;whiteSpace=wrap;html=1;movable=1;resizable=1;rotatable=1;deletable=1;editable=1;locked=0;" parent="CxZzPQsb67g6bhw40Xln-52" vertex="1">
          <mxGeometry width="29.659999999999854" height="30" as="geometry">
            <mxRectangle width="29.659999999999854" height="30" as="alternateBounds" />
          </mxGeometry>
        </mxCell>
        <mxCell id="CxZzPQsb67g6bhw40Xln-54" value="&lt;span style=&quot;text-align: center; text-wrap: nowrap;&quot;&gt;ItineraryID Int; 1&lt;/span&gt;" style="shape=partialRectangle;connectable=1;fillColor=none;top=0;left=0;bottom=0;right=0;align=left;spacingLeft=6;fontStyle=5;overflow=hidden;whiteSpace=wrap;html=1;movable=1;resizable=1;rotatable=1;deletable=1;editable=1;locked=0;" parent="CxZzPQsb67g6bhw40Xln-52" vertex="1">
          <mxGeometry x="29.659999999999854" width="370.34000000000015" height="30" as="geometry">
            <mxRectangle width="370.34000000000015" height="30" as="alternateBounds" />
          </mxGeometry>
        </mxCell>
        <mxCell id="CxZzPQsb67g6bhw40Xln-55" value="" style="shape=tableRow;horizontal=0;startSize=0;swimlaneHead=0;swimlaneBody=0;fillColor=none;collapsible=0;dropTarget=0;points=[[0,0.5],[1,0.5]];portConstraint=eastwest;top=0;left=0;right=0;bottom=0;movable=1;resizable=1;rotatable=1;deletable=1;editable=1;locked=0;connectable=1;" parent="CxZzPQsb67g6bhw40Xln-51" vertex="1">
          <mxGeometry y="60" width="400" height="450" as="geometry" />
        </mxCell>
        <mxCell id="CxZzPQsb67g6bhw40Xln-56" value="" style="shape=partialRectangle;connectable=1;fillColor=none;top=0;left=0;bottom=0;right=0;editable=1;overflow=hidden;whiteSpace=wrap;html=1;movable=1;resizable=1;rotatable=1;deletable=1;locked=0;" parent="CxZzPQsb67g6bhw40Xln-55" vertex="1">
          <mxGeometry width="29.659999999999854" height="450" as="geometry">
            <mxRectangle width="29.659999999999854" height="450" as="alternateBounds" />
          </mxGeometry>
        </mxCell>
        <mxCell id="CxZzPQsb67g6bhw40Xln-57" value="&lt;div style=&quot;text-align: center;&quot;&gt;&lt;br&gt;&lt;/div&gt;" style="shape=partialRectangle;connectable=1;fillColor=none;top=0;left=0;bottom=0;right=0;align=left;spacingLeft=6;overflow=hidden;whiteSpace=wrap;html=1;movable=1;resizable=1;rotatable=1;deletable=1;editable=1;locked=0;" parent="CxZzPQsb67g6bhw40Xln-55" vertex="1">
          <mxGeometry x="29.659999999999854" width="370.34000000000015" height="450" as="geometry">
            <mxRectangle width="370.34000000000015" height="450" as="alternateBounds" />
          </mxGeometry>
        </mxCell>
        <mxCell id="CxZzPQsb67g6bhw40Xln-58" value="" style="shape=tableRow;horizontal=0;startSize=0;swimlaneHead=0;swimlaneBody=0;fillColor=none;collapsible=0;dropTarget=0;points=[[0,0.5],[1,0.5]];portConstraint=eastwest;top=0;left=0;right=0;bottom=0;movable=1;resizable=1;rotatable=1;deletable=1;editable=1;locked=0;connectable=1;" parent="CxZzPQsb67g6bhw40Xln-51" vertex="1">
          <mxGeometry y="510" width="400" height="30" as="geometry" />
        </mxCell>
        <mxCell id="CxZzPQsb67g6bhw40Xln-59" value="" style="shape=partialRectangle;connectable=1;fillColor=none;top=0;left=0;bottom=0;right=0;editable=1;overflow=hidden;whiteSpace=wrap;html=1;movable=1;resizable=1;rotatable=1;deletable=1;locked=0;" parent="CxZzPQsb67g6bhw40Xln-58" vertex="1">
          <mxGeometry width="29.659999999999854" height="30" as="geometry">
            <mxRectangle width="29.659999999999854" height="30" as="alternateBounds" />
          </mxGeometry>
        </mxCell>
        <mxCell id="CxZzPQsb67g6bhw40Xln-60" value="" style="shape=partialRectangle;connectable=1;fillColor=none;top=0;left=0;bottom=0;right=0;align=left;spacingLeft=6;overflow=hidden;whiteSpace=wrap;html=1;movable=1;resizable=1;rotatable=1;deletable=1;editable=1;locked=0;" parent="CxZzPQsb67g6bhw40Xln-58" vertex="1">
          <mxGeometry x="29.659999999999854" width="370.34000000000015" height="30" as="geometry">
            <mxRectangle width="370.34000000000015" height="30" as="alternateBounds" />
          </mxGeometry>
        </mxCell>
        <mxCell id="CxZzPQsb67g6bhw40Xln-61" value="" style="shape=tableRow;horizontal=0;startSize=0;swimlaneHead=0;swimlaneBody=0;fillColor=none;collapsible=0;dropTarget=0;points=[[0,0.5],[1,0.5]];portConstraint=eastwest;top=0;left=0;right=0;bottom=0;movable=1;resizable=1;rotatable=1;deletable=1;editable=1;locked=0;connectable=1;" parent="CxZzPQsb67g6bhw40Xln-51" vertex="1">
          <mxGeometry y="540" width="400" height="30" as="geometry" />
        </mxCell>
        <mxCell id="CxZzPQsb67g6bhw40Xln-62" value="" style="shape=partialRectangle;connectable=1;fillColor=none;top=0;left=0;bottom=0;right=0;editable=1;overflow=hidden;whiteSpace=wrap;html=1;movable=1;resizable=1;rotatable=1;deletable=1;locked=0;" parent="CxZzPQsb67g6bhw40Xln-61" vertex="1">
          <mxGeometry width="29.659999999999854" height="30" as="geometry">
            <mxRectangle width="29.659999999999854" height="30" as="alternateBounds" />
          </mxGeometry>
        </mxCell>
        <mxCell id="CxZzPQsb67g6bhw40Xln-63" value="" style="shape=partialRectangle;connectable=1;fillColor=none;top=0;left=0;bottom=0;right=0;align=left;spacingLeft=6;overflow=hidden;whiteSpace=wrap;html=1;movable=1;resizable=1;rotatable=1;deletable=1;editable=1;locked=0;" parent="CxZzPQsb67g6bhw40Xln-61" vertex="1">
          <mxGeometry x="29.659999999999854" width="370.34000000000015" height="30" as="geometry">
            <mxRectangle width="370.34000000000015" height="30" as="alternateBounds" />
          </mxGeometry>
        </mxCell>
        <mxCell id="z1WtL6arX588rDJ7dFl5-33" value="ItineraryBaseLocation: String; Seattle" style="shape=partialRectangle;connectable=1;fillColor=none;top=0;left=0;bottom=0;right=0;align=left;spacingLeft=6;overflow=hidden;whiteSpace=wrap;html=1;movable=1;resizable=1;rotatable=1;deletable=1;editable=1;locked=0;" parent="z1WtL6arX588rDJ7dFl5-40" vertex="1">
          <mxGeometry x="30" y="70" width="250" height="30" as="geometry">
            <mxRectangle width="370.34000000000015" height="30" as="alternateBounds" />
          </mxGeometry>
        </mxCell>
        <mxCell id="z1WtL6arX588rDJ7dFl5-34" value="ItineraryBaseLocationLatitude; String: 47.6061° N" style="shape=partialRectangle;connectable=1;fillColor=none;top=0;left=0;bottom=0;right=0;align=left;spacingLeft=6;overflow=hidden;whiteSpace=wrap;html=1;movable=1;resizable=1;rotatable=1;deletable=1;editable=1;locked=0;" parent="z1WtL6arX588rDJ7dFl5-40" vertex="1">
          <mxGeometry x="30" y="100" width="330" height="30" as="geometry">
            <mxRectangle width="370.34000000000015" height="30" as="alternateBounds" />
          </mxGeometry>
        </mxCell>
        <mxCell id="z1WtL6arX588rDJ7dFl5-35" value="ItineraryBaseLocationLongitude; String: 122.3328° W" style="shape=partialRectangle;connectable=1;fillColor=none;top=0;left=0;bottom=0;right=0;align=left;spacingLeft=6;overflow=hidden;whiteSpace=wrap;html=1;movable=1;resizable=1;rotatable=1;deletable=1;editable=1;locked=0;" parent="z1WtL6arX588rDJ7dFl5-40" vertex="1">
          <mxGeometry x="30" y="130" width="330" height="30" as="geometry">
            <mxRectangle width="370.34000000000015" height="30" as="alternateBounds" />
          </mxGeometry>
        </mxCell>
        <mxCell id="z1WtL6arX588rDJ7dFl5-36" value="StartDate: DateTime; 10/10/2024" style="shape=partialRectangle;connectable=1;fillColor=none;top=0;left=0;bottom=0;right=0;align=left;spacingLeft=6;overflow=hidden;whiteSpace=wrap;html=1;movable=1;resizable=1;rotatable=1;deletable=1;editable=1;locked=0;" parent="z1WtL6arX588rDJ7dFl5-40" vertex="1">
          <mxGeometry x="30" y="160" width="250" height="30" as="geometry">
            <mxRectangle width="370.34000000000015" height="30" as="alternateBounds" />
          </mxGeometry>
        </mxCell>
        <mxCell id="z1WtL6arX588rDJ7dFl5-37" value="EndDate: DateTime; 10/20/2024" style="shape=partialRectangle;connectable=1;fillColor=none;top=0;left=0;bottom=0;right=0;align=left;spacingLeft=6;overflow=hidden;whiteSpace=wrap;html=1;movable=1;resizable=1;rotatable=1;deletable=1;editable=1;locked=0;" parent="z1WtL6arX588rDJ7dFl5-40" vertex="1">
          <mxGeometry x="30" y="190" width="250" height="30" as="geometry">
            <mxRectangle width="370.34000000000015" height="30" as="alternateBounds" />
          </mxGeometry>
        </mxCell>
        <mxCell id="z1WtL6arX588rDJ7dFl5-38" value="UserCreatedBy: String; 1234" style="shape=partialRectangle;connectable=1;fillColor=none;top=0;left=0;bottom=0;right=0;align=left;spacingLeft=6;overflow=hidden;whiteSpace=wrap;html=1;movable=1;resizable=1;rotatable=1;deletable=1;editable=1;locked=0;" parent="z1WtL6arX588rDJ7dFl5-40" vertex="1">
          <mxGeometry x="30" y="220" width="250" height="30" as="geometry">
            <mxRectangle width="370.34000000000015" height="30" as="alternateBounds" />
          </mxGeometry>
        </mxCell>
        <mxCell id="z1WtL6arX588rDJ7dFl5-39" value="Users: [Int]: [1234, 2345]" style="shape=partialRectangle;connectable=1;fillColor=none;top=0;left=0;bottom=0;right=0;align=left;spacingLeft=6;overflow=hidden;whiteSpace=wrap;html=1;movable=1;resizable=1;rotatable=1;deletable=1;editable=1;locked=0;" parent="z1WtL6arX588rDJ7dFl5-40" vertex="1">
          <mxGeometry x="30" y="250" width="250" height="30" as="geometry">
            <mxRectangle width="370.34000000000015" height="30" as="alternateBounds" />
          </mxGeometry>
        </mxCell>
        <mxCell id="z1WtL6arX588rDJ7dFl5-41" value="" style="group" parent="1" vertex="1" connectable="0">
          <mxGeometry x="610.0047619047618" y="1690" width="449.99523809523816" height="330" as="geometry" />
        </mxCell>
        <mxCell id="CxZzPQsb67g6bhw40Xln-66" value="User" style="shape=table;startSize=30;container=1;collapsible=1;childLayout=tableLayout;fixedRows=1;rowLines=0;fontStyle=1;align=center;resizeLast=1;html=1;" parent="z1WtL6arX588rDJ7dFl5-41" vertex="1">
          <mxGeometry x="30" y="110" width="380" height="310.0000000000002" as="geometry" />
        </mxCell>
        <mxCell id="CxZzPQsb67g6bhw40Xln-67" value="" style="shape=tableRow;horizontal=0;startSize=0;swimlaneHead=0;swimlaneBody=0;fillColor=none;collapsible=0;dropTarget=0;points=[[0,0.5],[1,0.5]];portConstraint=eastwest;top=0;left=0;right=0;bottom=1;" parent="CxZzPQsb67g6bhw40Xln-66" vertex="1">
          <mxGeometry y="30" width="380" height="30" as="geometry" />
        </mxCell>
        <mxCell id="CxZzPQsb67g6bhw40Xln-68" value="PK" style="shape=partialRectangle;connectable=0;fillColor=none;top=0;left=0;bottom=0;right=0;fontStyle=1;overflow=hidden;whiteSpace=wrap;html=1;" parent="CxZzPQsb67g6bhw40Xln-67" vertex="1">
          <mxGeometry width="29.659999999999854" height="30" as="geometry">
            <mxRectangle width="29.659999999999854" height="30" as="alternateBounds" />
          </mxGeometry>
        </mxCell>
        <mxCell id="CxZzPQsb67g6bhw40Xln-69" value="&lt;span style=&quot;text-align: center; text-wrap: nowrap;&quot;&gt;UserID: Int; 1234&lt;/span&gt;" style="shape=partialRectangle;connectable=0;fillColor=none;top=0;left=0;bottom=0;right=0;align=left;spacingLeft=6;fontStyle=5;overflow=hidden;whiteSpace=wrap;html=1;" parent="CxZzPQsb67g6bhw40Xln-67" vertex="1">
          <mxGeometry x="29.659999999999854" width="350.34000000000015" height="30" as="geometry">
            <mxRectangle width="350.34000000000015" height="30" as="alternateBounds" />
          </mxGeometry>
        </mxCell>
        <mxCell id="CxZzPQsb67g6bhw40Xln-70" value="" style="shape=tableRow;horizontal=0;startSize=0;swimlaneHead=0;swimlaneBody=0;fillColor=none;collapsible=0;dropTarget=0;points=[[0,0.5],[1,0.5]];portConstraint=eastwest;top=0;left=0;right=0;bottom=0;" parent="CxZzPQsb67g6bhw40Xln-66" vertex="1">
          <mxGeometry y="60" width="380" height="30" as="geometry" />
        </mxCell>
        <mxCell id="CxZzPQsb67g6bhw40Xln-71" value="" style="shape=partialRectangle;connectable=0;fillColor=none;top=0;left=0;bottom=0;right=0;editable=1;overflow=hidden;whiteSpace=wrap;html=1;" parent="CxZzPQsb67g6bhw40Xln-70" vertex="1">
          <mxGeometry width="29.659999999999854" height="30" as="geometry">
            <mxRectangle width="29.659999999999854" height="30" as="alternateBounds" />
          </mxGeometry>
        </mxCell>
        <mxCell id="CxZzPQsb67g6bhw40Xln-72" value="Profile_link: Uri; https://" style="shape=partialRectangle;connectable=0;fillColor=none;top=0;left=0;bottom=0;right=0;align=left;spacingLeft=6;overflow=hidden;whiteSpace=wrap;html=1;" parent="CxZzPQsb67g6bhw40Xln-70" vertex="1">
          <mxGeometry x="29.659999999999854" width="350.34000000000015" height="30" as="geometry">
            <mxRectangle width="350.34000000000015" height="30" as="alternateBounds" />
          </mxGeometry>
        </mxCell>
        <mxCell id="CxZzPQsb67g6bhw40Xln-76" value="" style="shape=tableRow;horizontal=0;startSize=0;swimlaneHead=0;swimlaneBody=0;fillColor=none;collapsible=0;dropTarget=0;points=[[0,0.5],[1,0.5]];portConstraint=eastwest;top=0;left=0;right=0;bottom=0;" parent="CxZzPQsb67g6bhw40Xln-66" vertex="1">
          <mxGeometry y="90" width="380" height="220" as="geometry" />
        </mxCell>
        <mxCell id="CxZzPQsb67g6bhw40Xln-77" value="" style="shape=partialRectangle;connectable=0;fillColor=none;top=0;left=0;bottom=0;right=0;editable=1;overflow=hidden;whiteSpace=wrap;html=1;" parent="CxZzPQsb67g6bhw40Xln-76" vertex="1">
          <mxGeometry width="29.659999999999854" height="220" as="geometry">
            <mxRectangle width="29.659999999999854" height="220" as="alternateBounds" />
          </mxGeometry>
        </mxCell>
        <mxCell id="CxZzPQsb67g6bhw40Xln-78" value="" style="shape=partialRectangle;connectable=0;fillColor=none;top=0;left=0;bottom=0;right=0;align=left;spacingLeft=6;overflow=hidden;whiteSpace=wrap;html=1;" parent="CxZzPQsb67g6bhw40Xln-76" vertex="1">
          <mxGeometry x="29.659999999999854" width="350.34000000000015" height="220" as="geometry">
            <mxRectangle width="350.34000000000015" height="220" as="alternateBounds" />
          </mxGeometry>
        </mxCell>
        <mxCell id="z1WtL6arX588rDJ7dFl5-2" value="UserName: String; Lyonsupernova&lt;span style=&quot;white-space: pre;&quot;&gt;&#x9;&lt;/span&gt;" style="shape=partialRectangle;connectable=0;fillColor=none;top=0;left=0;bottom=0;right=0;align=left;spacingLeft=6;overflow=hidden;whiteSpace=wrap;html=1;" parent="z1WtL6arX588rDJ7dFl5-41" vertex="1">
          <mxGeometry x="55.93047619047621" y="200" width="235.54571428571427" height="30" as="geometry">
            <mxRectangle width="170.34000000000015" height="30" as="alternateBounds" />
          </mxGeometry>
        </mxCell>
        <mxCell id="z1WtL6arX588rDJ7dFl5-3" value="EmailAddress: String; lyonstest@outlook.com" style="shape=partialRectangle;connectable=0;fillColor=none;top=0;left=0;bottom=0;right=0;align=left;spacingLeft=6;overflow=hidden;whiteSpace=wrap;html=1;" parent="z1WtL6arX588rDJ7dFl5-41" vertex="1">
          <mxGeometry x="55.93047619047621" y="230" width="307.9266666666666" height="30" as="geometry">
            <mxRectangle width="170.34000000000015" height="30" as="alternateBounds" />
          </mxGeometry>
        </mxCell>
        <mxCell id="z1WtL6arX588rDJ7dFl5-4" value="Password: Hash; 8hH@#!!ahdwhb" style="shape=partialRectangle;connectable=0;fillColor=none;top=0;left=0;bottom=0;right=0;align=left;spacingLeft=6;overflow=hidden;whiteSpace=wrap;html=1;" parent="z1WtL6arX588rDJ7dFl5-41" vertex="1">
          <mxGeometry x="55.93047619047621" y="260" width="235.54571428571427" height="30" as="geometry">
            <mxRectangle width="170.34000000000015" height="30" as="alternateBounds" />
          </mxGeometry>
        </mxCell>
        <mxCell id="z1WtL6arX588rDJ7dFl5-6" value="Interest: String; Surfing;Basketball;Sushi" style="shape=partialRectangle;connectable=0;fillColor=none;top=0;left=0;bottom=0;right=0;align=left;spacingLeft=6;overflow=hidden;whiteSpace=wrap;html=1;" parent="z1WtL6arX588rDJ7dFl5-41" vertex="1">
          <mxGeometry x="55.93047619047621" y="290" width="289.83142857142855" height="30" as="geometry">
            <mxRectangle width="170.34000000000015" height="30" as="alternateBounds" />
          </mxGeometry>
        </mxCell>
        <mxCell id="z1WtL6arX588rDJ7dFl5-7" value="Birthday: DateTime: 01/24/2000&amp;nbsp;" style="shape=partialRectangle;connectable=0;fillColor=none;top=0;left=0;bottom=0;right=0;align=left;spacingLeft=6;overflow=hidden;whiteSpace=wrap;html=1;" parent="z1WtL6arX588rDJ7dFl5-41" vertex="1">
          <mxGeometry x="55.93047619047621" y="320" width="235.54571428571427" height="30" as="geometry">
            <mxRectangle width="170.34000000000015" height="30" as="alternateBounds" />
          </mxGeometry>
        </mxCell>
        <mxCell id="z1WtL6arX588rDJ7dFl5-8" value="Gender: String; Male" style="shape=partialRectangle;connectable=0;fillColor=none;top=0;left=0;bottom=0;right=0;align=left;spacingLeft=6;overflow=hidden;whiteSpace=wrap;html=1;" parent="z1WtL6arX588rDJ7dFl5-41" vertex="1">
          <mxGeometry x="56.23809523809524" y="350" width="153.80952380952382" height="30" as="geometry">
            <mxRectangle width="170.34000000000015" height="30" as="alternateBounds" />
          </mxGeometry>
        </mxCell>
        <mxCell id="z1WtL6arX588rDJ7dFl5-9" value="PhoneNumber: String; 2068397494" style="shape=partialRectangle;connectable=0;fillColor=none;top=0;left=0;bottom=0;right=0;align=left;spacingLeft=6;overflow=hidden;whiteSpace=wrap;html=1;" parent="z1WtL6arX588rDJ7dFl5-41" vertex="1">
          <mxGeometry x="56.23809523809524" y="380" width="343.8095238095238" height="30" as="geometry">
            <mxRectangle width="170.34000000000015" height="30" as="alternateBounds" />
          </mxGeometry>
        </mxCell>
        <mxCell id="2fLwNPqqwPUuYWa6ky4n-3" value="List" style="text;whiteSpace=wrap;html=1;" vertex="1" parent="z1WtL6arX588rDJ7dFl5-41">
          <mxGeometry x="309.99523809523816" y="290" width="140" height="40" as="geometry" />
        </mxCell>
        <mxCell id="z1WtL6arX588rDJ7dFl5-42" value="Constraints&lt;div&gt;&lt;br&gt;&lt;/div&gt;&lt;div&gt;-&amp;nbsp;&lt;span style=&quot;font-weight: 700; text-wrap: nowrap; background-color: initial;&quot;&gt;ItineraryLocation.Date &amp;gt;=&amp;nbsp;&lt;/span&gt;&lt;span style=&quot;font-weight: 700; text-wrap: nowrap; background-color: initial;&quot;&gt;Itinerary&lt;span style=&quot;font-size: 10px;&quot;&gt;.&lt;/span&gt;&lt;/span&gt;&lt;span style=&quot;background-color: initial; font-weight: 700; text-wrap: nowrap;&quot;&gt;StartDate &amp;amp;&amp;amp;&amp;nbsp;&lt;/span&gt;&lt;span style=&quot;font-weight: 700; text-wrap: nowrap; background-color: initial;&quot;&gt;ItineraryLocation.&lt;/span&gt;&lt;span style=&quot;background-color: initial; text-wrap: nowrap; font-weight: 700;&quot;&gt;Date &amp;lt;=&amp;nbsp;&lt;/span&gt;&lt;span style=&quot;background-color: initial; text-wrap: nowrap; font-weight: 700;&quot;&gt;Itinerary.&lt;/span&gt;&lt;span style=&quot;background-color: initial; text-wrap: nowrap; font-weight: 700;&quot;&gt;EndDate&lt;/span&gt;&lt;/div&gt;" style="whiteSpace=wrap;html=1;" parent="1" vertex="1">
          <mxGeometry x="570" y="960" width="570" height="90" as="geometry" />
        </mxCell>
        <mxCell id="z1WtL6arX588rDJ7dFl5-43" value="Constraints&lt;div&gt;&lt;br&gt;&lt;/div&gt;&lt;div&gt;-&amp;nbsp;&lt;span style=&quot;font-weight: 700; text-wrap: nowrap; background-color: initial;&quot;&gt;Itinerary&lt;span style=&quot;font-size: 10px;&quot;&gt;.&lt;/span&gt;&lt;/span&gt;&lt;span style=&quot;background-color: initial; font-weight: 700; text-wrap: nowrap;&quot;&gt;StartDate&lt;/span&gt;&lt;span style=&quot;background-color: initial; text-wrap: nowrap; font-weight: 700;&quot;&gt;&amp;nbsp;&amp;lt;=&amp;nbsp;&lt;/span&gt;&lt;span style=&quot;background-color: initial; text-wrap: nowrap; font-weight: 700;&quot;&gt;Itinerary.&lt;/span&gt;&lt;span style=&quot;background-color: initial; text-wrap: nowrap; font-weight: 700;&quot;&gt;EndDate&lt;/span&gt;&lt;/div&gt;" style="whiteSpace=wrap;html=1;" parent="1" vertex="1">
          <mxGeometry x="20" y="1580" width="570" height="90" as="geometry" />
        </mxCell>
        <mxCell id="2fLwNPqqwPUuYWa6ky4n-2" value="&lt;span style=&quot;color: rgb(0, 0, 0); font-family: Helvetica; font-size: 12px; font-style: normal; font-variant-ligatures: normal; font-variant-caps: normal; font-weight: 400; letter-spacing: normal; orphans: 2; text-align: left; text-indent: 0px; text-transform: none; widows: 2; word-spacing: 0px; -webkit-text-stroke-width: 0px; white-space: normal; background-color: rgb(251, 251, 251); text-decoration-thickness: initial; text-decoration-style: initial; text-decoration-color: initial; display: inline !important; float: none;&quot;&gt;FriendsID: Int&lt;/span&gt;" style="text;whiteSpace=wrap;html=1;" vertex="1" parent="1">
          <mxGeometry x="676" y="2120" width="140" height="40" as="geometry" />
        </mxCell>
        <mxCell id="2fLwNPqqwPUuYWa6ky4n-4" value="Category: String: Restaurant&amp;nbsp;&lt;div&gt;StyleTags: List:&amp;nbsp;&amp;nbsp;&lt;/div&gt;" style="text;whiteSpace=wrap;html=1;" vertex="1" parent="1">
          <mxGeometry x="100" y="1510" width="230" height="40" as="geometry" />
        </mxCell>
      </root>
    </mxGraphModel>
  </diagram>
</mxfile>
